<?xml version="1.0" standalone="no"?>
<!DOCTYPE svg PUBLIC "-//W3C//DTD SVG 20010904//EN"
 "http://www.w3.org/TR/2001/REC-SVG-20010904/DTD/svg10.dtd">
<svg version="1.0" xmlns="http://www.w3.org/2000/svg"
 width="300.000000pt" height="300.000000pt" viewBox="0 0 300.000000 300.000000"
 preserveAspectRatio="xMidYMid meet">
<metadata>
Created by potrace 1.10, written by Peter Selinger 2001-2011
</metadata>
<g transform="translate(0.000000,300.000000) scale(0.100000,-0.100000)"
fill="#000000" stroke="none">
<path d="M784 2710 c-91 -24 -177 -67 -236 -119 -25 -23 -51 -41 -56 -41 -6 0
-14 -5 -18 -12 -5 -7 -3 -8 7 -2 8 4 -3 -8 -23 -28 -42 -42 -90 -136 -114
-223 -15 -53 -18 -141 -21 -760 -3 -767 -3 -771 56 -900 35 -76 106 -169 166
-218 67 -56 189 -110 247 -111 27 0 43 -3 37 -7 -26 -15 227 -21 811 -16 679
5 684 5 820 70 145 69 274 247 305 417 10 57 13 234 14 741 1 753 1 761 -70
907 -65 134 -184 235 -343 292 l-71 25 -720 2 c-677 2 -724 1 -791 -17z m1541
-22 c121 -38 202 -91 275 -179 53 -64 110 -166 110 -197 0 -10 3 -22 7 -26 35
-35 49 -500 34 -1116 -8 -322 -12 -385 -28 -445 -32 -115 -86 -202 -172 -279
-13 -11 -31 -29 -40 -38 -8 -10 -19 -18 -23 -18 -4 0 -24 -10 -45 -22 -20 -12
-42 -24 -48 -25 -5 -1 -23 -6 -40 -9 -16 -4 -33 -11 -36 -16 -7 -10 -208 -13
-724 -12 -176 1 -392 1 -480 1 -229 0 -330 15 -427 64 -10 5 -23 9 -30 9 -18
0 -84 58 -80 71 1 6 -1 8 -5 6 -5 -3 -26 8 -47 24 -22 16 -36 29 -31 29 5 0
-3 12 -16 27 -38 41 -66 94 -89 169 -17 58 -21 101 -25 353 -5 260 -5 831 -1
1056 1 50 6 113 10 140 9 58 73 190 113 236 55 62 83 89 92 89 5 0 11 6 14 14
6 16 127 76 192 96 66 21 288 25 905 19 491 -5 593 -8 635 -21z m-1217 -2405
c-15 -2 -42 -2 -60 0 -18 2 -6 4 27 4 33 0 48 -2 33 -4z"/>
<path d="M905 2673 c-235 -26 -404 -156 -476 -368 l-24 -70 0 -720 0 -720 23
-75 c41 -130 134 -244 244 -297 136 -66 100 -64 885 -63 l713 0 73 24 c94 29
173 82 232 154 55 67 77 106 102 187 17 56 18 109 18 785 0 724 0 725 -23 797
-29 94 -121 220 -195 267 -80 51 -164 83 -248 95 -69 9 -1243 13 -1324 4z
m1165 -43 c138 -9 92 -10 -468 -13 -254 -1 -462 1 -462 5 0 3 6 8 13 11 18 7
794 4 917 -3z m200 -9 c5 -11 24 -23 42 -26 104 -22 217 -109 272 -208 67
-120 75 -174 77 -517 1 -168 1 -309 0 -314 0 -5 -7 -4 -13 1 -7 6 -30 13 -50
17 -21 4 -38 12 -38 18 0 7 -6 4 -12 -5 -10 -13 -22 -15 -50 -11 -21 4 -38 11
-38 17 0 5 -7 3 -16 -4 -13 -11 -17 -10 -25 4 -12 21 -29 22 -29 2 0 -8 -7
-16 -15 -16 -52 -5 -73 -3 -72 6 3 14 38 34 60 35 9 0 17 7 17 15 0 7 6 18 14
22 20 11 154 132 190 171 42 46 49 67 28 92 -15 18 -28 20 -132 20 -242 -1
-310 -5 -310 -17 0 -18 109 -25 278 -19 107 5 152 3 152 -4 0 -21 -195 -200
-282 -259 -100 -68 -179 -101 -260 -108 -49 -5 -57 -9 -62 -29 -5 -18 -13 -24
-34 -24 -59 0 -71 -9 -67 -49 2 -20 4 -39 4 -43 1 -5 6 -8 12 -8 5 0 7 5 4 10
-7 11 12 40 26 40 4 0 11 -10 15 -22 6 -19 7 -20 16 -4 8 14 12 15 26 4 15
-11 15 -11 4 4 -9 11 -10 18 -2 23 18 11 30 -5 25 -33 -3 -15 -2 -20 1 -12 7
16 40 50 49 50 3 0 5 -7 5 -15 0 -8 -4 -15 -10 -15 -5 0 -10 -6 -10 -12 0 -7
-12 -21 -25 -31 -24 -17 -31 -13 -26 16 2 11 -17 8 -25 -5 -4 -7 2 -18 14 -26
24 -16 29 -47 10 -55 -10 -4 -9 -8 2 -16 11 -8 16 -6 21 7 4 10 18 24 33 31
14 8 26 20 26 28 0 22 24 14 37 -12 6 -14 7 -25 3 -25 -5 0 -10 6 -12 12 -4
10 -10 10 -32 0 -16 -7 -24 -17 -20 -24 4 -6 -2 -17 -12 -25 -18 -13 -18 -15
-1 -24 9 -6 15 -14 12 -20 -4 -5 -2 -9 3 -9 17 0 21 28 6 34 -9 3 -12 11 -9
17 5 7 13 5 24 -5 24 -22 28 -20 46 15 11 19 22 29 31 25 8 -3 14 1 14 8 0 8
6 16 13 19 9 3 9 9 -1 26 -7 12 -8 21 -2 21 5 0 10 -4 10 -10 0 -5 6 -10 14
-10 24 0 30 -21 7 -27 -12 -3 -21 -8 -21 -12 0 -15 -42 -51 -52 -45 -7 5 -8 2
-4 -5 5 -7 0 -18 -10 -26 -18 -13 -18 -15 4 -37 22 -22 24 -22 33 -5 10 18 11
18 24 0 12 -15 17 -16 34 -5 12 6 24 12 28 12 5 0 1 -5 -7 -10 -8 -5 -15 -15
-15 -22 0 -18 -34 -22 -41 -5 -5 13 -8 13 -23 -1 -17 -16 -17 -18 2 -45 11
-16 30 -33 44 -38 13 -5 21 -13 18 -19 -8 -12 -35 -13 -35 -1 0 5 -8 12 -17
15 -11 4 -6 -4 11 -19 23 -22 31 -24 44 -13 13 11 15 10 9 -11 -4 -18 -3 -21
6 -12 6 6 17 11 24 11 20 0 15 -21 -6 -27 -26 -7 -33 -39 -12 -55 14 -11 14
-11 4 3 -13 16 -8 29 12 29 6 0 11 -15 11 -34 0 -33 22 -66 44 -66 8 0 10 -8
7 -21 -4 -14 -1 -19 7 -16 7 3 22 -3 35 -12 20 -15 21 -19 7 -30 -14 -12 -16
-10 -16 9 0 19 -2 20 -15 10 -18 -15 -21 -45 -3 -34 7 5 9 2 5 -8 -10 -27 3
-26 33 2 19 18 30 39 32 64 2 20 7 37 12 39 5 1 11 -47 12 -108 5 -197 5 -192
14 -170 5 11 9 140 9 286 l1 266 -65 61 c-35 34 -70 60 -77 58 -7 -1 -9 -1 -5
2 13 7 -24 42 -45 42 -20 0 -22 30 -3 36 6 2 57 -38 115 -89 l105 -93 3 -269
c1 -149 4 -276 7 -284 4 -10 9 -11 16 -4 13 13 21 123 8 123 -5 0 -9 7 -9 15
0 8 5 15 10 15 18 0 11 30 -7 30 -16 1 -16 2 2 16 17 13 18 17 6 36 -10 16
-10 23 -2 26 15 5 14 29 -1 36 -10 5 -10 7 0 12 16 7 16 31 0 38 -10 5 -10 7
0 12 16 7 16 31 0 37 -10 4 -9 8 2 16 13 10 13 12 0 21 -13 9 -13 11 -1 19 12
8 12 12 2 24 -9 12 -9 16 1 20 10 3 11 9 1 25 -8 13 -9 23 -3 27 19 12 10 52
-19 79 -21 20 -30 24 -34 14 -3 -7 -6 -4 -6 8 -1 12 -8 27 -17 35 -17 14 -44
62 -44 79 0 5 7 10 15 10 8 0 15 -8 15 -18 0 -10 27 -44 60 -77 l60 -59 0
-182 c0 -177 1 -182 20 -177 25 7 27 33 3 33 -17 1 -17 1 0 14 20 16 24 86 5
87 -10 0 -10 2 0 6 8 3 12 34 12 103 l0 98 -50 55 c-55 60 -58 67 -32 66 9 0
36 -25 60 -55 l42 -54 0 -222 c0 -162 3 -219 11 -211 9 9 17 366 10 473 -1 14
2 45 6 70 l7 45 6 -45 c3 -25 2 -160 -1 -300 -5 -193 -11 -267 -23 -304 -27
-81 -83 -171 -138 -222 -54 -48 -170 -110 -176 -93 -2 5 -59 9 -126 9 -162 0
-162 0 -168 163 -4 103 -2 117 12 117 15 0 16 -13 12 -107 -6 -140 -7 -139
151 -146 115 -5 117 -5 117 16 0 21 -3 22 -88 19 -84 -3 -89 -2 -115 24 -23
23 -27 36 -29 90 -1 35 -2 72 -2 81 -1 24 30 28 38 6 4 -10 2 -19 -3 -21 -6
-2 -11 -28 -11 -58 0 -81 17 -94 125 -94 l85 0 0 120 0 120 -785 0 -785 0 0
-120 0 -121 133 3 132 3 0 92 c0 82 2 93 18 93 15 0 17 -10 17 -78 0 -47 -5
-83 -12 -90 -18 -18 -1 -27 30 -16 26 9 27 12 30 97 3 79 5 87 22 87 18 0 20
-7 20 -79 0 -70 -3 -83 -24 -108 l-24 -28 -171 -3 c-152 -3 -171 -5 -171 -20
0 -15 16 -17 147 -17 134 0 148 -2 151 -18 3 -16 -5 -17 -117 -12 -67 3 -121
3 -121 1 0 -3 15 -10 33 -15 29 -10 28 -10 -13 -5 -63 9 -136 39 -132 56 2 7
0 10 -3 6 -24 -24 -140 91 -193 189 -68 128 -67 116 -65 845 2 710 2 714 57
833 75 163 239 267 440 281 l86 6 0 -89 0 -89 51 -49 50 -50 -2 -65 c-4 -83 1
-179 8 -162 8 21 43 14 43 -8 0 -24 -28 -39 -39 -21 -4 6 -15 9 -23 6 -14 -5
-16 7 -17 86 -1 96 -16 134 -47 122 -9 -3 -12 0 -9 9 3 8 -14 33 -45 62 l-50
47 0 90 c0 72 -3 89 -15 89 -13 0 -15 -20 -15 -120 l0 -121 45 -48 c25 -26 45
-57 45 -69 0 -12 8 -23 20 -27 24 -8 26 -28 5 -45 -26 -21 -45 -4 -45 40 0 35
-7 48 -42 86 l-43 46 -5 128 -5 128 -86 -27 c-131 -42 -220 -117 -280 -233
-22 -43 -23 -48 -7 -48 6 0 9 3 5 6 -8 8 40 77 91 131 42 44 52 45 52 6 0 -14
4 -33 10 -43 5 -10 12 -39 15 -65 7 -58 20 -80 65 -108 24 -15 30 -23 19 -25
-21 -4 -43 -46 -36 -66 9 -23 64 -21 71 2 9 30 1 47 -48 105 -43 51 -47 60
-45 100 2 31 -2 50 -14 61 -21 22 -22 40 -1 60 22 23 41 20 60 -9 15 -24 15
-27 0 -44 -10 -11 -16 -35 -16 -68 0 -48 3 -54 46 -92 26 -23 53 -41 60 -41
25 0 45 -30 34 -51 -8 -14 -7 -27 5 -48 9 -19 11 -32 5 -36 -17 -10 -11 -35 8
-35 10 0 23 -5 30 -12 7 -7 12 -8 12 -2 0 5 -10 15 -21 22 -17 11 -19 16 -9
25 9 9 15 7 27 -10 9 -13 24 -23 34 -23 11 0 19 -4 19 -10 0 -5 7 -10 15 -10
8 0 15 6 15 13 0 8 3 7 9 -3 6 -8 7 -18 4 -24 -3 -5 -1 -6 5 -2 7 4 12 14 12
22 0 21 17 17 23 -6 6 -25 29 -27 25 -3 -2 15 4 17 32 16 29 -2 25 1 -24 17
-46 15 -63 16 -83 7 -20 -9 -27 -7 -45 11 l-22 21 24 21 c22 19 25 20 36 5 18
-24 115 -59 124 -44 6 8 10 7 16 -4 5 -9 38 -26 74 -40 36 -13 89 -34 118 -45
28 -12 52 -18 52 -13 0 5 -14 12 -30 16 -17 4 -27 11 -24 16 3 6 12 8 20 5 22
-9 5 19 -27 43 -38 28 -50 21 -13 -8 15 -12 25 -24 22 -26 -3 -3 -17 4 -31 16
-28 21 -37 14 -15 -10 15 -16 13 -15 -69 19 -29 13 -53 27 -53 31 0 14 28 11
33 -3 3 -10 10 -8 25 5 15 14 22 15 28 6 4 -7 2 -15 -4 -17 -17 -5 -15 -22 2
-22 8 0 16 10 18 23 2 13 9 21 18 18 8 -2 30 -7 49 -11 18 -5 49 -23 67 -41
19 -18 34 -29 34 -25 0 5 6 3 14 -3 18 -15 101 -5 134 16 38 23 20 25 -48 3
-34 -11 -64 -20 -66 -20 -2 0 -13 18 -25 41 -16 32 -19 50 -14 82 6 33 4 43
-12 56 -10 9 -36 68 -58 131 l-39 116 42 62 c40 58 102 112 129 112 22 0 23
-18 4 -52 -30 -52 -32 -80 -10 -107 23 -28 -3 -33 294 59 105 32 230 70 280
85 49 15 99 33 110 41 28 20 72 18 85 -5z m-1200 -56 c0 -37 -4 -65 -10 -65
-6 0 -10 26 -10 59 0 38 -4 61 -12 64 -7 3 -3 6 10 6 21 1 22 -3 22 -64z m53
49 c-3 -9 -6 -24 -7 -35 -1 -11 -5 -18 -11 -17 -5 2 -9 11 -7 22 1 10 -3 25
-9 32 -9 11 -6 14 14 14 20 0 25 -4 20 -16z m772 -13 c63 -1 50 -16 -37 -42
-80 -23 -188 -59 -209 -69 -9 -5 -37 -12 -64 -15 -60 -10 -71 4 -44 56 10 21
19 45 19 53 0 21 51 24 335 17z m-485 -5 c0 -7 -68 -106 -84 -122 -9 -8 -16
-20 -16 -26 0 -6 -8 -20 -17 -31 -10 -11 -12 -17 -5 -13 7 4 11 4 10 -1 -3 -9
71 -145 84 -154 5 -3 6 -13 2 -22 -4 -11 5 -28 26 -48 26 -26 30 -36 22 -53
-5 -12 -8 -32 -6 -46 1 -14 3 -29 3 -33 1 -5 5 -6 9 -3 4 2 9 -5 9 -17 2 -19
-1 -18 -25 11 -15 18 -31 32 -37 32 -12 0 -95 81 -95 94 0 5 17 -6 37 -25 41
-37 31 -23 -68 91 -69 79 -72 83 -137 153 -23 25 -38 48 -33 52 6 3 25 -11 43
-32 18 -20 43 -47 55 -60 13 -13 27 -32 33 -43 7 -12 16 -17 27 -13 12 5 15 2
11 -8 -3 -8 2 -25 12 -37 16 -19 20 -20 30 -7 17 21 25 19 38 -10 16 -35 15
-37 -8 -30 -31 10 -24 -5 36 -70 30 -33 51 -51 47 -40 -3 11 -13 24 -22 29
-13 8 -13 10 1 15 14 5 6 26 -45 131 -57 115 -87 155 -87 116 0 -25 -19 -19
-26 9 -9 37 4 95 22 95 12 0 11 8 -8 41 -19 34 -20 42 -8 49 8 6 10 10 4 10
-6 0 -17 -7 -24 -15 -15 -18 -30 -19 -30 -2 0 23 44 35 133 36 48 0 87 -1 87
-3z m-548 -141 c3 -127 2 -135 -17 -135 -8 0 -21 -7 -30 -16 -8 -9 -23 -13
-31 -10 -16 6 -16 52 1 131 5 24 1 36 -21 58 -14 16 -32 26 -40 23 -8 -3 -11
0 -8 9 5 12 15 19 36 24 4 1 20 8 35 16 16 8 38 15 50 15 21 0 22 -4 25 -115z
m198 -222 c2 -29 4 -60 4 -70 1 -9 -4 -18 -10 -20 -8 -3 -12 17 -12 59 l0 63
-56 56 c-77 77 -71 96 8 23 61 -57 64 -61 66 -111z m230 102 c15 -18 21 -75 8
-75 -4 0 -8 5 -8 11 0 6 -11 20 -25 31 -20 16 -23 23 -14 34 15 18 24 18 39
-1z m-412 -68 c3 -23 0 -27 -22 -27 -21 0 -26 5 -26 23 0 13 3 27 7 31 15 14
38 0 41 -27z m367 -38 c27 -34 44 -60 39 -58 -12 5 -104 104 -104 113 0 18 22
0 65 -55z m-319 0 c10 -17 -13 -36 -27 -22 -12 12 -4 33 11 33 5 0 12 -5 16
-11z m288 -54 c3 -8 13 -15 21 -15 9 0 13 5 9 11 -4 8 0 7 15 -1 12 -6 21 -16
20 -23 -1 -7 1 -20 6 -30 13 -31 0 -28 -41 8 -21 19 -42 35 -46 35 -5 0 -8 7
-8 15 0 8 4 15 9 15 5 0 11 -7 15 -15z m-426 -18 c2 -12 -3 -17 -17 -17 -15 0
-21 6 -21 21 0 25 33 22 38 -4z m190 10 c18 -12 -5 -50 -25 -43 -9 4 -21 -1
-29 -11 -13 -17 -14 -17 -20 4 -3 13 -10 20 -15 17 -5 -3 -9 0 -9 6 0 6 10 8
25 4 15 -4 25 -2 25 5 0 6 -7 11 -15 11 -8 0 -15 4 -15 8 0 11 60 9 78 -1z
m1222 -636 c0 -5 9 -11 21 -14 12 -3 18 -10 14 -16 -9 -16 -35 -13 -35 4 0 20
-10 19 -26 -2 -10 -15 -15 -16 -26 -5 -10 10 -9 14 10 18 12 4 22 10 22 15 0
5 5 9 10 9 6 0 10 -4 10 -9z m-116 -45 c20 -18 36 -36 36 -40 0 -11 -38 -6
-44 7 -3 8 -8 6 -17 -7 -11 -19 -12 -19 -25 -1 -11 15 -16 16 -29 5 -17 -14
-50 -6 -40 11 4 6 13 8 21 5 8 -3 23 7 36 24 12 17 23 30 24 30 1 0 19 -15 38
-34z m142 -20 c28 -22 7 -36 -44 -29 -57 8 -47 30 19 42 3 1 14 -5 25 -13z
m-106 -72 c0 -17 -26 -19 -36 -3 -7 12 15 31 28 23 4 -3 8 -12 8 -20z m56 15
c10 -17 -13 -36 -27 -22 -12 12 -4 33 11 33 5 0 12 -5 16 -11z m-61 -129 c-5
-8 -12 -6 -25 7 -12 12 -14 20 -6 25 15 10 40 -17 31 -32z m121 19 c10 -17
-13 -36 -27 -22 -12 12 -4 33 11 33 5 0 12 -5 16 -11z m-36 -39 c0 -5 -4 -10
-9 -10 -5 0 -11 -9 -14 -20 -3 -13 -10 -18 -21 -14 -22 8 -20 25 4 31 11 3 20
9 20 14 0 5 5 9 10 9 6 0 10 -4 10 -10z m75 -13 c10 -8 15 -19 11 -25 -10 -16
-38 -2 -32 15 3 8 1 11 -4 8 -6 -3 -10 -1 -10 4 0 15 12 14 35 -2z m-41 -6 c7
-10 -22 -37 -30 -28 -9 8 3 37 15 37 5 0 12 -4 15 -9z m104 -8 c-5 -25 -28
-28 -28 -4 0 12 6 21 16 21 9 0 14 -7 12 -17z m2 -58 c0 -8 -7 -15 -15 -15
-20 0 -19 -10 2 -25 15 -11 11 -35 -5 -35 -16 0 -27 45 -17 68 11 25 35 30 35
7z m-118 -43 c19 -16 15 -32 -9 -32 -11 0 -14 6 -10 21 4 15 2 19 -8 15 -15
-5 -29 7 -18 17 7 7 20 1 45 -21z m68 -13 c0 -4 -5 -11 -11 -14 -13 -9 -52 32
-44 45 7 11 55 -16 55 -31z m-36 -31 c-5 -8 -2 -9 10 -5 10 4 19 1 22 -8 4 -8
11 -15 16 -15 6 0 8 6 5 14 -4 10 0 12 14 9 22 -6 26 -23 4 -23 -8 0 -15 -4
-15 -10 0 -5 7 -10 15 -10 8 0 15 -7 15 -15 0 -23 -24 -18 -35 7 -6 13 -19 25
-30 27 -28 5 -49 41 -24 41 5 0 7 -5 3 -12z m146 -19 c0 -5 -10 -9 -22 -9 -21
-1 -22 -2 -5 -14 21 -16 23 -40 1 -32 -8 3 -12 2 -9 -4 3 -6 1 -10 -4 -10 -14
0 -14 17 0 26 8 5 8 9 -1 14 -18 11 6 51 25 44 8 -4 15 -10 15 -15z m-60 -94
c0 -8 -7 -15 -15 -15 -8 0 -15 -5 -15 -11 0 -5 -5 -7 -12 -3 -9 6 -9 9 0 12 7
2 12 10 12 18 0 8 7 14 15 14 8 0 15 -7 15 -15z m0 -49 c0 -7 6 -13 14 -13 8
0 12 6 9 13 -6 17 10 25 27 14 12 -8 11 -12 -9 -26 l-24 -17 22 -9 c12 -4 19
-12 16 -18 -10 -17 -32 -11 -38 10 -3 11 -17 24 -32 30 -22 9 -25 13 -15 25
13 16 30 11 30 -9z m-1416 -227 c32 -25 35 -70 6 -99 -26 -26 -51 -25 -84 1
-43 34 -31 92 24 112 24 9 26 8 54 -14z m320 -2 c0 -9 -1 -83 -2 -163 -2 -111
-5 -145 -14 -142 -9 3 -14 48 -18 159 -3 85 -4 158 -2 162 7 15 37 2 36 -16z
m66 -142 c0 -136 -2 -163 -14 -159 -19 7 -18 324 2 324 9 0 12 -40 12 -165z
m355 155 c4 -6 4 -19 0 -28 -4 -9 -6 -52 -5 -95 2 -113 -8 -125 -107 -129
l-78 -3 -3 -33 c-5 -47 -26 -35 -30 16 -4 48 1 50 113 54 l70 3 1 105 c1 58 2
108 3 113 2 11 29 9 36 -3z m55 -155 c0 -140 -2 -165 -15 -165 -13 0 -15 25
-15 165 0 140 2 165 15 165 13 0 15 -25 15 -165z m62 15 c0 -82 1 -156 2 -162
1 -7 -5 -13 -13 -13 -11 0 -14 29 -13 160 1 88 2 161 2 163 0 1 5 2 10 2 6 0
11 -58 12 -150z m73 140 c4 -6 4 -19 0 -28 -4 -9 -8 -77 -8 -151 -2 -93 -6
-136 -14 -138 -8 -3 -12 38 -15 154 -2 87 -2 161 0 166 5 11 30 9 37 -3z m68
-150 c-1 -88 -5 -160 -8 -160 -3 0 -10 0 -16 0 -8 0 -9 41 -4 139 5 95 4 140
-3 145 -16 9 -3 36 17 36 14 0 16 -17 14 -160z m73 145 c3 -8 3 -19 -1 -25 -4
-6 -6 -72 -6 -146 2 -112 0 -134 -13 -134 -12 0 -15 26 -18 153 -2 83 -2 155
0 160 6 13 32 8 38 -8z m255 -15 c19 -11 25 -43 13 -75 -11 -27 -53 -38 -80
-21 -70 47 -8 136 67 96z m-801 -10 c0 -9 -14 -14 -24 -7 -2 1 -14 -7 -26 -18
-20 -18 -21 -27 -19 -140 2 -98 0 -120 -12 -120 -11 0 -15 25 -17 124 -2 116
-1 126 19 148 23 23 79 33 79 13z m122 -7 c22 -20 23 -61 2 -91 -18 -27 -69
-30 -96 -5 -22 20 -23 70 -1 95 20 22 70 23 95 1z m-82 -149 c0 -2 -9 -4 -20
-4 -11 0 -20 -4 -20 -10 0 -5 -7 -10 -15 -10 -11 0 -15 11 -15 38 0 21 2 41 5
44 5 5 65 -48 65 -58z m-312 -41 c2 -37 8 -71 14 -74 21 -13 -38 -23 -139 -23
-55 -1 -99 2 -97 5 2 3 -13 6 -33 7 -69 3 -45 12 31 12 85 0 116 11 116 39 0
11 15 28 37 41 21 12 43 31 51 41 7 10 14 19 15 19 1 0 4 -30 5 -67z m491 -81
c1 -7 -3 -10 -9 -7 -5 3 -10 1 -10 -5 0 -10 -134 -4 -153 7 -20 12 33 32 85
33 33 0 60 5 64 12 8 12 22 -13 23 -40z m463 8 c31 0 60 -4 63 -10 3 -5 3 -10
-2 -11 -85 -7 -161 -8 -170 -1 -7 4 -10 17 -7 29 5 19 8 20 32 7 15 -8 53 -14
84 -14z"/>
<path d="M966 2593 c-3 -16 -2 -58 2 -95 7 -63 9 -69 65 -127 32 -34 60 -61
63 -61 12 0 2 41 -13 52 -53 40 -88 90 -89 126 -1 20 -2 58 -3 85 -1 51 -16
63 -25 20z"/>
<path d="M2200 2590 c-12 -8 -11 -10 8 -10 12 0 22 -6 22 -12 0 -13 -215 -87
-365 -127 -38 -11 -83 -24 -100 -30 -16 -6 -72 -23 -123 -39 l-94 -28 -8 22
c-5 12 -25 34 -44 49 -41 31 -47 65 -21 115 9 17 11 30 5 30 -5 0 -16 -15 -25
-32 -8 -18 -20 -40 -27 -49 -9 -14 -7 -22 13 -47 13 -16 36 -37 52 -46 15 -10
34 -30 42 -47 9 -16 22 -29 29 -29 15 0 479 131 623 176 47 15 87 33 90 40 6
16 -33 74 -50 74 -7 0 -19 -5 -27 -10z"/>
<path d="M2298 2544 c6 -52 17 -46 -203 -110 -88 -26 -162 -50 -165 -53 -3 -3
-14 -7 -26 -8 -11 -1 -34 -7 -50 -14 -16 -6 -38 -13 -49 -14 -37 -5 -220 -57
-228 -64 -4 -4 -3 -20 2 -34 7 -17 7 -27 1 -27 -18 0 -10 -29 13 -52 42 -41
57 -108 34 -145 -16 -25 12 -12 36 16 14 17 27 27 31 24 3 -3 15 2 26 12 15
14 20 15 20 4 0 -7 -21 -34 -47 -58 -27 -24 -41 -40 -33 -36 8 4 25 17 38 28
16 15 25 18 33 10 8 -8 3 -16 -21 -28 -17 -9 -30 -18 -28 -20 7 -6 68 8 63 15
-8 13 19 29 60 34 22 2 53 9 68 15 49 19 64 11 17 -9 -26 -11 -37 -19 -25 -19
26 -1 262 46 275 54 14 8 13 45 -1 45 -8 0 -7 5 1 15 7 9 19 14 27 11 8 -3 11
-2 8 3 -3 5 -1 12 5 16 6 3 13 -1 16 -9 3 -9 13 -16 21 -16 21 0 11 -23 -16
-36 -22 -11 -22 -12 8 -16 16 -2 28 -1 25 4 -3 4 8 5 23 2 24 -5 31 -1 43 20
14 27 25 32 35 17 3 -6 -3 -14 -12 -20 -17 -10 -17 -10 2 -11 18 -1 33 -4 60
-10 21 -5 75 13 75 25 0 18 34 45 57 45 11 0 25 6 31 13 8 9 -1 11 -44 9 -34
-3 -54 0 -54 7 0 7 22 11 53 12 66 0 35 16 -36 17 -26 1 -52 4 -56 7 -5 2 -24
-1 -42 -9 -38 -15 -58 -12 -76 12 -8 10 -13 11 -13 4 0 -7 -7 -12 -15 -12 -23
0 -18 16 10 34 14 9 25 23 25 31 0 8 7 15 15 15 8 0 15 5 15 10 0 6 -3 10 -8
10 -4 0 -12 10 -17 23 -7 14 -19 22 -35 22 -16 0 -28 -8 -35 -22 -12 -27 -32
-30 -37 -5 -3 15 -6 14 -16 -6 -7 -12 -9 -21 -5 -20 13 5 16 -6 9 -29 -7 -22
-12 -23 -109 -15 -25 3 -16 27 10 28 11 1 31 4 45 7 34 9 31 46 -4 70 -16 11
-25 24 -21 33 3 7 8 12 12 9 4 -2 20 2 35 10 15 8 30 14 34 14 4 -1 9 0 12 1
3 1 12 3 20 5 45 10 110 52 110 73 0 4 4 13 9 21 20 31 145 -65 216 -165 43
-60 45 -48 6 22 -40 70 -115 134 -199 171 l-69 31 5 -44z m-499 -248 c-11 -20
-25 -36 -31 -36 -10 0 -5 10 26 52 27 39 31 28 5 -16z m487 33 c10 -17 -13
-36 -27 -22 -12 12 -4 33 11 33 5 0 12 -5 16 -11z m-406 -7 c0 -5 11 -15 25
-22 25 -13 35 -40 15 -40 -5 0 -10 8 -10 17 0 13 -14 4 -47 -29 -32 -33 -44
-51 -37 -58 7 -7 16 -5 30 5 10 8 14 15 7 15 -15 0 -5 30 9 30 6 0 8 -7 4 -15
-3 -8 -2 -15 3 -15 4 0 7 -10 6 -22 -1 -16 -8 -23 -23 -23 -30 -1 -41 -15 -35
-46 7 -39 39 -54 69 -34 14 9 22 20 19 25 -4 6 -3 15 0 21 9 14 37 -40 30 -59
-3 -8 -12 -11 -24 -7 -11 3 -34 -1 -50 -9 -38 -20 -65 -20 -31 -1 39 22 9 17
-34 -6 -55 -29 -62 -20 -21 28 45 52 45 63 0 29 -19 -15 -35 -22 -35 -16 0 6
16 26 35 44 19 19 35 39 35 47 0 7 -29 -16 -65 -51 -80 -80 -86 -67 -7 17 31
34 74 80 95 102 32 35 46 61 33 61 -2 0 -11 3 -20 6 -11 4 -16 0 -16 -14 0
-12 -4 -23 -9 -26 -5 -3 -48 -58 -95 -121 -48 -63 -89 -115 -93 -115 -3 0 0 7
7 15 10 12 9 23 -4 56 -14 34 -14 40 -3 36 8 -3 24 6 37 20 21 25 43 25 22 0
-11 -13 -38 -76 -28 -67 4 5 112 152 151 208 15 21 55 31 55 14z m-152 -31
c-11 -18 -11 -23 1 -30 16 -11 6 -32 -13 -25 -8 3 -22 -13 -37 -40 -18 -34
-26 -42 -36 -34 -7 6 -13 7 -13 4 0 -4 -9 -2 -19 4 -15 8 -19 20 -18 55 1 30
6 45 15 45 16 0 42 -24 42 -39 0 -5 11 0 25 13 14 13 24 30 22 37 -2 8 -2 10
1 6 2 -5 11 1 19 13 19 27 29 19 11 -9z m257 -17 c0 -10 -8 -20 -17 -22 -18
-3 -26 27 -11 42 12 11 28 0 28 -20z m185 -114 c0 -13 -2 -13 -9 -1 -8 12 -12
12 -25 2 -9 -7 -24 -10 -33 -6 -16 6 -16 8 5 25 19 16 27 17 43 7 10 -6 19
-19 19 -27z m-80 20 c0 -22 -58 -67 -93 -73 -21 -3 -37 -2 -37 4 0 5 0 12 0
17 0 4 8 7 18 7 41 1 80 17 85 36 5 19 27 27 27 9z m198 -13 c4 -20 -25 -34
-40 -19 -15 15 -1 44 19 40 10 -2 19 -11 21 -21z m152 -17 c0 -40 0 -40 -40
-40 -39 0 -40 1 -40 34 0 33 2 35 38 39 20 2 38 4 40 5 1 1 2 -16 2 -38z
m-322 -67 c5 -16 -22 -27 -44 -19 -13 5 -14 9 -4 22 15 17 41 15 48 -3z"/>
<path d="M1378 2436 c-15 -35 56 -239 81 -231 13 4 16 -4 18 -36 1 -46 6 -54
28 -45 13 5 14 10 5 27 -8 14 -8 25 -2 31 6 6 13 -1 20 -21 8 -22 15 -29 26
-25 20 8 20 7 -2 53 -16 33 -17 39 -4 48 11 7 13 16 6 36 -13 38 -27 35 -37
-7 -9 -37 -26 -46 -45 -23 -19 23 -65 161 -64 190 3 34 -15 35 -30 3z"/>
<path d="M553 2226 c-48 -40 -58 -68 -38 -105 16 -31 68 -71 93 -71 24 0 92
72 92 98 0 30 -71 102 -100 102 -10 0 -31 -11 -47 -24z m83 -32 c19 -15 34
-32 34 -38 0 -21 -60 -85 -75 -80 -8 3 -26 21 -41 41 l-26 35 33 34 c18 19 35
34 37 34 2 0 19 -12 38 -26z"/>
<path d="M1528 2117 c-60 -20 -67 -30 -45 -61 13 -18 16 -18 73 0 32 10 60 19
62 20 2 1 -4 16 -13 33 -8 17 -17 30 -18 30 -1 -1 -28 -11 -59 -22z"/>
<path d="M2100 2040 c-19 -5 -36 -13 -38 -19 -2 -5 -11 -7 -20 -4 -14 6 -15 4
-5 -9 7 -8 12 -17 10 -19 -1 -2 3 1 8 7 21 22 56 34 90 31 29 -4 33 -2 24 9
-13 15 -18 16 -69 4z"/>
<path d="M886 2006 c9 -24 -13 -28 -139 -25 -181 3 -199 3 -229 -6 -16 -4 -26
-11 -23 -15 3 -5 1 -11 -5 -15 -6 -4 -10 -65 -10 -154 0 -147 0 -148 27 -175
14 -15 32 -25 40 -22 7 3 13 -1 13 -9 0 -8 5 -15 10 -15 6 0 10 -7 10 -15 0
-23 -16 -18 -34 10 -10 15 -22 23 -28 18 -9 -5 -9 -8 0 -11 20 -6 14 -35 -6
-30 -14 4 -18 -3 -20 -44 -4 -59 4 -88 25 -88 8 0 13 -6 10 -12 -2 -7 -10 -12
-16 -10 -6 1 -11 -5 -11 -13 0 -8 7 -15 15 -15 8 0 15 -7 15 -15 0 -18 -26
-20 -34 -2 -4 6 -4 2 -2 -10 2 -13 0 -26 -5 -29 -6 -4 -6 -11 1 -19 6 -7 8
-19 4 -28 -4 -12 -1 -14 15 -10 24 6 29 -14 6 -23 -8 -4 -15 -12 -15 -19 0 -7
-4 -15 -9 -17 -14 -5 7 -48 24 -48 21 0 19 -30 -2 -30 -17 -1 -17 -1 0 -14 21
-17 21 -25 0 -43 -10 -8 -13 -12 -6 -9 19 10 28 -16 10 -29 -21 -15 -22 -25
-2 -25 8 0 15 -7 15 -16 0 -9 -6 -14 -13 -11 -8 3 -14 -1 -14 -9 0 -8 6 -13
13 -10 7 3 15 -2 18 -10 9 -22 4 -29 -16 -26 -10 2 -18 -1 -18 -7 0 -6 7 -8
15 -5 10 4 15 0 15 -14 0 -12 4 -24 10 -27 13 -8 -11 -45 -29 -45 -11 0 -12
-3 -3 -12 8 -8 15 -8 27 2 12 10 15 10 15 -4 0 -9 7 -16 15 -16 8 0 15 -7 15
-15 0 -8 5 -15 10 -15 6 0 10 6 10 14 0 7 11 21 25 30 22 15 25 15 34 -2 9
-16 11 -16 25 3 8 11 15 25 15 30 0 6 -3 4 -6 -2 -7 -18 -33 -16 -33 1 0 8 6
17 13 19 8 4 8 8 2 14 -5 4 -15 18 -22 29 -11 20 -10 21 13 10 13 -6 24 -16
24 -21 0 -6 9 -16 20 -23 12 -7 20 -8 20 -2 0 5 -4 10 -10 10 -19 0 -10 29 15
48 13 11 22 22 18 26 -3 3 -12 -2 -19 -12 -12 -15 -15 -15 -24 -2 -7 11 -5 16
8 18 27 6 44 33 30 49 -6 7 -7 17 -3 21 4 4 10 1 12 -5 3 -7 11 -13 18 -13 27
0 26 -20 -2 -32 -23 -9 -25 -12 -10 -15 26 -7 48 26 33 49 -6 10 -16 18 -23
18 -7 0 -13 7 -13 15 0 23 27 18 33 -6 3 -11 15 -23 26 -26 26 -7 28 -30 4
-36 -17 -4 -17 -5 0 -6 28 -2 34 30 9 47 -21 14 -30 42 -14 42 15 0 92 76 92
91 0 9 -8 5 -19 -10 -12 -16 -21 -20 -25 -12 -4 6 -4 16 -1 21 3 6 -1 10 -9
10 -9 0 -16 5 -16 10 0 6 -6 10 -14 10 -13 0 -30 39 -21 49 3 2 5 -1 5 -7 0
-7 7 -12 17 -12 14 0 15 2 1 18 -9 9 -18 28 -22 42 -3 14 -3 19 0 13 3 -7 13
-13 21 -13 10 0 14 -6 10 -20 -3 -10 -1 -18 3 -17 11 3 12 -5 4 -27 -10 -26
23 -51 44 -34 11 10 17 8 28 -7 10 -13 14 -15 14 -4 0 8 -7 22 -14 32 -13 17
-15 17 -24 1 -5 -9 -14 -14 -21 -10 -17 11 -13 26 6 26 15 0 15 2 -1 19 -18
20 -15 41 6 41 6 0 8 -9 5 -21 -4 -15 -2 -19 10 -15 8 3 17 6 19 6 2 0 4 6 4
13 0 15 40 41 48 31 4 -4 1 -9 -5 -11 -18 -7 -16 -30 3 -37 14 -5 15 -4 5 7
-9 11 -8 17 4 27 14 11 17 10 21 -8 4 -11 12 -23 20 -26 11 -4 12 -2 4 14 -5
10 -15 22 -20 25 -6 4 -8 11 -5 16 4 5 -3 9 -14 9 -22 0 -28 15 -10 26 12 7
79 -54 79 -73 0 -7 5 -13 10 -13 13 0 13 27 0 35 -8 5 -7 11 1 21 6 8 9 18 5
22 -4 4 -12 -1 -17 -11 -11 -19 -29 -14 -29 9 0 8 8 14 18 14 16 1 16 1 0 14
-10 7 -18 18 -18 23 0 5 -11 16 -25 23 -26 14 -34 40 -12 40 7 0 21 13 30 30
10 16 21 29 25 28 19 -4 39 15 35 33 -4 13 0 19 10 19 8 0 17 -3 20 -7 2 -5 2
-2 1 5 -2 6 1 12 6 12 6 0 10 -5 10 -11 0 -5 4 -8 9 -4 6 3 35 -20 65 -51 70
-69 74 -55 6 19 -69 76 -140 103 -330 127 -80 10 -193 21 -252 25 l-108 7 0
154 0 154 273 1 c200 0 265 3 247 11 -14 6 -49 10 -77 9 -51 -2 -53 -1 -53 23
0 15 -4 26 -10 26 -5 0 -7 -6 -4 -14z m-106 -436 c11 0 19 -36 13 -60 -6 -23
-33 -27 -33 -5 0 8 7 15 15 15 20 0 19 6 -5 30 -24 24 -30 25 -30 4 0 -17 -21
-15 -27 3 -4 12 24 23 45 17 8 -2 17 -4 22 -4z m172 -17 c17 -15 18 -15 18 0
0 19 8 21 30 7 9 -6 17 -5 21 1 4 7 19 3 40 -10 19 -12 30 -21 24 -22 -61 -7
-85 -4 -85 8 0 11 -6 11 -30 -2 -17 -9 -28 -20 -25 -25 7 -12 -12 -23 -27 -14
-7 5 -5 11 7 21 15 10 16 16 7 25 -27 27 -9 38 20 11z m-32 -23 c0 -5 -7 -10
-15 -10 -8 0 -15 -7 -15 -15 0 -16 -12 -20 -24 -8 -4 4 3 15 16 25 26 20 38
23 38 8z m130 -25 c0 -8 -7 -15 -15 -15 -8 0 -15 -4 -15 -10 0 -5 -7 -10 -15
-10 -8 0 -12 -6 -9 -14 3 -8 1 -17 -5 -21 -6 -3 -14 2 -18 12 -4 10 -11 22
-17 26 -7 5 -4 7 7 3 21 -7 57 13 57 31 0 7 7 13 15 13 8 0 15 -7 15 -15z
m-114 -39 c15 -12 16 -17 7 -27 -10 -10 -14 -8 -19 7 -4 10 -12 22 -18 26 -8
5 -8 8 0 8 5 0 19 -6 30 -14z m68 -128 c15 -21 12 -43 -4 -33 -5 3 -6 13 -3
22 4 11 3 14 -5 9 -15 -9 -34 2 -27 15 10 15 23 11 39 -13z m-228 -88 c8 0 14
-7 14 -15 0 -8 -7 -15 -15 -15 -8 0 -15 4 -15 9 0 5 -2 15 -3 23 -2 7 -2 10 0
6 3 -5 11 -8 19 -8z m-32 -65 c-9 -14 -20 -22 -25 -19 -14 8 -10 24 6 24 8 0
15 7 15 16 0 8 4 12 10 9 6 -4 4 -15 -6 -30z m46 -46 c0 15 12 14 36 -3 15
-12 16 -17 7 -27 -10 -10 -14 -7 -22 12 -8 21 -10 22 -16 7 -4 -10 -13 -18
-21 -18 -21 0 -17 -13 7 -29 13 -8 24 -9 28 -3 7 11 51 26 51 17 0 -9 -21 -27
-47 -42 -15 -9 -23 -9 -32 0 -8 8 -19 3 -42 -22 -21 -24 -33 -31 -41 -23 -6 6
-17 8 -24 5 -8 -3 -14 1 -14 11 0 21 19 20 36 -1 11 -15 13 -15 14 -3 0 8 10
20 23 25 17 8 22 19 24 53 1 23 -3 42 -8 42 -5 0 -9 -7 -9 -15 0 -8 -7 -15
-15 -15 -8 0 -15 7 -15 15 0 8 7 15 15 15 8 0 15 5 15 10 0 6 11 3 25 -6 15
-10 25 -12 25 -5z m-210 -64 c0 -8 -7 -15 -15 -15 -8 0 -15 -4 -15 -10 0 -5 7
-10 15 -10 8 0 15 -7 15 -15 0 -21 -12 -19 -33 5 -14 17 -15 24 -5 40 15 24
38 26 38 5z m116 -152 c16 -22 17 -33 4 -33 -5 0 -10 7 -10 15 0 8 -5 14 -11
13 -6 -2 -14 3 -16 10 -7 18 18 15 33 -5z m-111 -43 c-3 -22 -32 -24 -37 -3
-4 13 1 18 17 18 14 0 22 -6 20 -15z m50 -1 c0 -7 -8 -15 -17 -17 -18 -3 -25
18 -11 32 10 10 28 1 28 -15z m-20 -35 c23 -15 25 -15 25 0 0 9 5 16 10 16 13
0 12 -11 -4 -32 -7 -10 -21 -18 -30 -18 -10 0 -15 -4 -11 -9 3 -5 0 -13 -6
-16 -19 -12 -21 3 -4 29 16 24 16 26 1 26 -9 0 -16 -7 -16 -15 0 -17 -26 -20
-35 -4 -4 6 2 13 14 16 12 3 21 9 21 14 0 13 7 11 35 -7z"/>
<path d="M1183 2009 c-16 -6 -21 -13 -16 -26 5 -14 8 -14 11 -2 9 26 25 28 74
8 58 -23 88 -25 38 -3 -58 26 -84 32 -107 23z"/>
<path d="M1995 2012 c-11 -4 -20 -16 -20 -27 0 -18 -7 -20 -95 -22 -62 -1 -88
1 -75 7 18 8 17 9 -7 9 -19 1 -28 -4 -28 -14 0 -12 19 -15 111 -15 102 0 111
-2 116 -20 5 -18 14 -20 79 -20 l74 0 -6 -72 c-8 -96 -9 -98 -43 -98 -16 0
-31 -6 -35 -15 -3 -8 -13 -15 -22 -15 -13 0 -15 12 -13 87 3 77 1 88 -14 91
-15 3 -17 -11 -17 -162 0 -91 3 -166 8 -166 10 0 195 81 262 115 64 32 140 82
156 102 6 7 40 32 74 54 34 22 60 42 57 45 -2 3 -40 -6 -83 -20 -44 -13 -98
-28 -121 -31 -24 -4 -43 -10 -43 -13 0 -4 -23 -8 -51 -9 -29 -1 -57 -7 -63
-14 -8 -8 -6 -10 9 -6 11 3 36 8 55 11 24 4 18 0 -20 -13 -51 -17 -55 -21 -58
-52 -2 -19 -8 -38 -14 -44 -7 -7 -8 20 -3 88 7 97 -3 157 -27 157 -5 0 -6 5
-3 10 9 14 -4 12 -20 -3 -8 -8 -27 -12 -50 -9 -24 3 -33 7 -24 13 7 4 17 5 21
3 4 -3 8 0 8 6 0 8 -10 9 -29 5 -21 -4 -30 -2 -34 9 -4 9 -3 16 1 16 4 0 8 9
9 20 1 11 1 20 0 19 -1 -1 -11 -4 -22 -7z m281 -272 c-44 -28 -66 -31 -66 -10
0 9 74 38 99 39 8 1 -7 -13 -33 -29z m-138 -55 c-4 -21 -64 -56 -84 -48 -17 6
-19 63 -1 64 37 2 58 6 64 12 10 11 25 -9 21 -28z"/>
<path d="M1247 1953 c18 -2 50 -2 70 0 21 2 7 4 -32 4 -38 0 -55 -2 -38 -4z"/>
<path d="M539 1810 c-1 -61 -2 -116 -3 -122 -1 -9 16 -14 49 -16 108 -6 349
-33 417 -47 127 -27 212 -83 266 -174 21 -36 26 -57 26 -110 0 -77 -23 -130
-82 -188 -20 -21 -36 -40 -35 -43 1 -3 -6 -6 -15 -7 -35 -2 -97 -32 -100 -47
-4 -21 0 -20 45 5 21 12 47 22 58 23 33 2 90 56 125 119 17 31 29 57 25 57 -4
0 -2 7 5 15 32 39 4 180 -49 238 -64 70 -170 135 -217 133 -24 -1 -30 2 -27
15 3 9 -3 19 -12 23 -11 4 -18 0 -22 -13 -4 -17 -8 -17 -31 -6 -15 7 -50 16
-79 20 -37 5 -50 10 -47 20 3 7 1 23 -6 34 -8 16 -8 27 1 43 9 16 9 23 0 26
-6 2 -11 12 -11 23 0 12 -7 19 -20 19 -20 0 -27 14 -11 24 5 3 25 7 45 8 20 2
36 6 36 10 0 4 30 5 68 3 37 -3 96 -4 132 -3 119 2 135 2 164 -5 16 -3 30 -8
32 -10 13 -13 19 -104 11 -173 -11 -89 -6 -125 22 -151 10 -10 24 -35 30 -55
7 -21 16 -38 20 -38 21 0 33 -54 32 -132 -3 -110 -5 -127 -12 -122 -4 2 -19
-20 -34 -49 -15 -28 -40 -68 -54 -86 l-26 -35 33 24 c17 13 32 30 32 37 0 7 4
13 10 13 5 0 15 18 21 40 13 44 29 53 30 18 1 -37 7 -60 18 -71 8 -8 11 39 11
162 l0 173 -30 38 c-16 21 -30 47 -30 57 0 11 -11 29 -25 41 -25 22 -25 23
-25 186 l0 164 -325 1 c-199 0 -325 -4 -325 -9 0 -6 11 -10 25 -10 16 0 25 -6
25 -15 0 -17 25 -20 35 -5 13 21 33 9 39 -24 4 -22 13 -36 26 -39 26 -7 26
-37 0 -37 -13 0 -20 7 -20 20 0 11 -7 20 -15 20 -10 0 -15 10 -16 28 0 15 -3
21 -6 15 -2 -7 -13 -13 -24 -13 -13 0 -19 -7 -19 -21 0 -16 4 -19 20 -14 16 5
20 2 20 -14 0 -23 -34 -30 -44 -8 -3 6 -3 0 0 -15 4 -18 0 -33 -10 -44 -9 -8
-13 -20 -10 -26 4 -6 -1 -8 -15 -3 -11 3 -35 7 -51 7 -17 1 -33 4 -35 8 -9 14
-17 131 -11 155 4 17 13 25 28 25 29 0 20 6 -19 13 l-33 7 -1 -110z m281 -85
c0 -8 -9 -15 -20 -15 -11 0 -20 7 -20 15 0 8 9 15 20 15 11 0 20 -7 20 -15z"/>
<path d="M1320 1769 l0 -151 30 -38 c17 -21 30 -43 30 -50 0 -6 14 -31 31 -56
l30 -45 -6 -161 c-5 -145 -4 -160 11 -154 8 3 20 6 25 6 14 0 11 174 -3 188
-10 10 -10 17 0 33 23 36 12 100 -25 145 -33 41 -33 42 -33 146 0 82 -3 108
-15 118 -8 7 -15 25 -15 40 0 15 7 33 15 40 9 7 15 29 15 51 0 36 -2 39 -27
39 l-28 0 0 -129 c0 -102 3 -127 13 -119 8 7 12 7 13 -1 3 -25 4 -71 1 -71 -1
0 -11 15 -22 33 -17 27 -20 50 -20 160 0 78 -4 127 -10 127 -6 0 -10 -57 -10
-151z"/>
<path d="M1437 1913 c-14 -13 -7 -74 8 -79 9 -4 15 -19 15 -40 0 -22 -6 -37
-15 -40 -12 -5 -15 -27 -15 -113 0 -98 2 -108 25 -136 l24 -30 1 223 c0 209
-1 222 -18 222 -10 0 -22 -3 -25 -7z"/>
<path d="M1500 1629 c0 -192 4 -289 11 -296 8 -8 8 -13 0 -17 -7 -5 -11 -74
-11 -207 0 -187 -7 -234 -26 -176 -5 12 -7 25 -6 28 0 3 4 36 7 72 l7 67 -28
0 c-27 0 -27 0 -21 -60 5 -63 -3 -81 -29 -59 -10 8 -12 15 -4 23 5 5 10 24 10
42 l0 32 -45 -13 c-70 -22 -127 -49 -164 -80 -32 -27 -33 -31 -27 -79 3 -28 1
-58 -4 -66 -7 -10 -10 4 -10 48 l0 62 -99 0 -99 0 -4 -70 -3 -70 118 0 c99 0
124 3 158 20 129 66 365 82 522 36 49 -15 102 -33 117 -41 21 -11 62 -15 142
-15 l114 0 -1 70 0 70 -102 0 -103 0 0 -37 c0 -32 2 -35 13 -19 10 14 25 16
77 14 63 -3 65 -4 68 -30 l3 -28 -68 0 c-40 0 -74 5 -81 12 -9 9 -12 8 -12 -5
0 -9 -4 -17 -10 -17 -5 0 -10 6 -10 13 0 7 -19 17 -42 23 -24 7 -70 19 -103
28 -33 9 -81 18 -107 19 -47 2 -48 3 -48 35 0 17 -5 32 -11 32 -6 0 -8 7 -5
16 3 8 2 12 -4 9 -6 -3 -10 -28 -10 -56 0 -27 -4 -49 -10 -49 -9 0 -15 22 -11
43 1 5 -3 6 -8 3 -5 -4 -12 -2 -16 4 -3 5 1 10 9 10 13 0 16 13 16 65 0 58 -2
65 -20 65 -11 0 -20 5 -20 10 0 6 9 10 20 10 20 0 20 7 20 314 0 270 -2 315
-15 320 -19 7 -19 46 -2 71 10 13 21 16 40 11 24 -6 27 -11 27 -46 0 -29 -4
-40 -15 -40 -13 0 -15 -41 -15 -309 0 -335 1 -340 53 -295 26 23 27 25 27 139
l0 116 101 111 c88 97 99 114 94 138 -4 19 -2 29 9 33 22 8 27 -3 20 -42 -7
-36 -85 -134 -166 -210 l-38 -34 0 -123 c0 -78 4 -125 11 -130 6 -3 9 -17 7
-29 -3 -16 -1 -22 8 -18 19 7 25 32 13 55 -6 11 -8 22 -5 25 3 3 10 -6 15 -19
10 -25 91 -120 91 -106 0 4 -18 35 -40 69 -45 69 -86 172 -72 177 6 2 8 11 5
21 -3 13 2 20 19 24 35 10 36 9 34 -24 -1 -17 3 -36 9 -43 6 -6 10 -17 7 -25
-2 -7 5 -26 17 -42 11 -15 21 -37 21 -49 0 -15 7 -20 25 -20 17 0 25 -6 25
-17 0 -17 47 -44 123 -73 21 -7 28 -16 25 -32 -2 -17 -11 -23 -38 -26 -63 -7
-45 -12 41 -12 l84 1 -32 29 c-18 16 -33 36 -33 44 0 8 -12 17 -27 21 -44 10
-117 61 -153 106 -41 52 -59 100 -60 162 0 92 41 147 128 169 l53 13 0 195 0
195 -100 2 -101 3 0 -170 0 -170 -75 -77 -75 -76 0 -128 c0 -79 -4 -129 -10
-129 -6 0 -10 52 -10 135 l0 135 47 58 46 59 -2 179 c-1 98 -4 180 -6 182 -2
2 -8 1 -14 -3 -7 -4 -11 -71 -11 -190 0 -112 -4 -186 -10 -190 -7 -4 -10 61
-10 189 l0 194 -70 -1 -70 -2 0 -286z m91 261 c5 0 9 -4 9 -10 0 -5 -7 -10
-15 -10 -8 0 -15 -5 -15 -11 0 -5 -4 -7 -10 -4 -5 3 -10 15 -10 27 0 14 5 18
16 14 9 -3 20 -6 25 -6z m239 0 c0 -6 11 -8 26 -4 17 4 29 2 34 -7 7 -10 11
-10 25 1 14 11 18 11 25 1 7 -12 7 -21 1 -50 -1 -2 -12 4 -25 12 -15 10 -38
14 -64 12 -33 -3 -41 -1 -45 15 -3 10 -2 21 1 24 9 10 22 7 22 -4z m74 -76
c36 -36 8 -87 -44 -82 -27 2 -37 9 -44 30 -18 51 49 91 88 52z m24 -250 c-15
-15 -68 -26 -68 -15 0 5 6 14 14 20 7 6 21 32 31 57 16 43 16 46 0 58 -17 12
-16 14 6 30 l24 16 3 -76 c2 -54 -1 -81 -10 -90z m-108 132 c0 -24 -16 -43
-26 -33 -8 7 7 57 17 57 5 0 9 -11 9 -24z m-94 -307 c3 -6 2 -15 -2 -19 -12
-12 -38 5 -30 19 9 14 23 14 32 0z m-344 -416 c6 -13 19 -23 29 -23 21 0 33
-16 24 -30 -4 -6 -12 -7 -23 -1 -8 5 -23 5 -31 1 -13 -6 -63 -21 -170 -51 -20
-6 -26 28 -10 58 13 24 100 86 143 103 17 6 22 3 24 -14 2 -11 8 -31 14 -43z
m-247 -93 c0 -24 -3 -25 -67 -28 l-68 -3 0 31 0 31 68 -3 c64 -3 67 -4 67 -28z"/>
<path d="M1844 1785 c-8 -19 12 -36 33 -28 19 7 12 37 -10 41 -9 2 -20 -4 -23
-13z"/>
<path d="M1718 1914 c-7 -6 1 -336 8 -343 14 -14 18 28 19 176 0 155 -6 189
-27 167z"/>
<path d="M618 1883 c-3 -4 -5 -23 -6 -40 -2 -27 1 -33 18 -33 18 0 21 5 18 37
-3 34 -21 55 -30 36z"/>
<path d="M940 1865 c0 -8 -6 -15 -13 -15 -8 0 -24 -11 -37 -25 -18 -19 -21
-31 -16 -57 8 -41 43 -78 73 -78 59 0 101 112 53 142 -11 7 -20 21 -20 30 0
11 -8 18 -20 18 -11 0 -20 -7 -20 -15z m46 -61 c35 -52 -23 -117 -66 -74 -24
24 -26 57 -3 82 23 25 50 22 69 -8z"/>
<path d="M930 1775 c0 -15 6 -25 14 -25 22 0 30 19 16 35 -18 22 -30 18 -30
-10z"/>
<path d="M1119 1855 c-60 -32 -63 -130 -6 -165 18 -11 44 -20 59 -20 40 0 87
47 95 92 5 33 2 41 -30 73 -38 38 -73 44 -118 20z m90 -49 c28 -30 24 -63 -10
-89 -23 -16 -30 -17 -50 -7 -31 17 -39 29 -39 62 0 28 31 58 60 58 9 0 27 -11
39 -24z"/>
<path d="M1150 1785 c-17 -20 -6 -45 20 -45 17 0 21 5 18 27 -4 31 -20 40 -38
18z"/>
<path d="M617 1773 c-14 -13 -6 -33 13 -33 13 0 20 7 20 20 0 19 -20 27 -33
13z"/>
<path d="M1053 1451 c-9 -11 -20 -18 -25 -15 -4 3 -8 0 -8 -6 0 -6 -7 -18 -15
-27 -8 -8 -13 -19 -9 -24 7 -13 24 -1 24 17 0 8 7 14 15 14 8 0 15 -5 15 -10
0 -6 -7 -13 -15 -16 -17 -7 -20 -24 -4 -24 6 0 20 -11 31 -25 11 -14 24 -25
31 -25 6 0 2 6 -8 14 -12 8 -18 25 -18 47 0 19 -4 39 -8 45 -10 12 27 52 37
41 9 -9 -6 -28 -17 -22 -5 4 -9 -1 -9 -9 0 -9 7 -16 15 -16 21 0 19 -26 -2
-35 -16 -6 -15 -8 5 -16 15 -6 21 -14 16 -21 -5 -10 -4 -10 6 -1 10 9 10 16 2
25 -13 16 7 48 31 48 16 0 27 21 27 48 -1 10 -7 4 -15 -13 -7 -16 -14 -25 -14
-18 -1 19 -31 43 -52 43 -10 0 -27 -9 -36 -19z"/>
<path d="M1145 1383 c-18 -14 -18 -15 -2 -9 26 9 41 -2 26 -20 -7 -8 -7 -14
-1 -14 13 0 23 26 16 45 -8 19 -14 18 -39 -2z"/>
<path d="M1940 1355 c0 -11 9 -26 20 -33 25 -15 25 -4 0 28 -18 23 -20 23 -20
5z"/>
<path d="M1570 1068 c0 -36 2 -39 13 -25 11 15 18 15 78 3 94 -20 151 -50 207
-109 22 -23 27 -25 34 -12 13 23 -7 51 -58 81 -56 33 -166 74 -198 74 -13 0
-29 7 -36 15 -24 29 -40 18 -40 -27z"/>
<path d="M1030 1005 l-34 -25 47 0 c26 0 47 5 47 11 0 5 -6 7 -12 3 -10 -6
-10 -5 -1 8 12 14 8 28 -7 28 -3 0 -21 -11 -40 -25z"/>
<path d="M2560 764 c0 -65 4 -103 10 -99 11 7 17 41 24 138 5 62 4 67 -14 67
-19 0 -20 -7 -20 -106z"/>
<path d="M2396 777 c3 -8 -2 -20 -11 -27 -20 -16 -19 -28 2 -32 16 -3 16 -4 0
-20 -21 -21 -21 -28 -2 -28 8 0 15 -8 16 -17 2 -37 17 33 18 85 1 39 -3 52
-14 52 -8 0 -12 -6 -9 -13z"/>
<path d="M866 674 c-9 -8 -16 -18 -16 -22 1 -38 63 -42 68 -5 4 30 -31 49 -52
27z"/>
<path d="M2187 657 c-8 -21 8 -39 29 -35 27 5 25 42 -2 46 -12 2 -24 -3 -27
-11z"/>
<path d="M1495 639 c-10 -30 18 -58 43 -43 9 6 17 22 17 35 0 34 -50 41 -60 8z"/>
<path d="M2730 1780 c0 -128 2 -231 5 -229 7 7 8 449 1 456 -3 4 -6 -99 -6
-227z"/>
</g>
</svg>
